#!OML:ASF H:\Martial Arts Walks\Project 1\Capture day 1\Session 1\male.ASF
:FULLY-SPECIFIED
:DEGREES
1538
root -1.98766 14.3999 -21.0257 8.36459 32.2891 11.156
lowerback 12.7664 2.70787 -13.9072
upperback -0.918115 1.36624 -1.25391
thorax -8.55381 1.26896 6.19692
lowerneck 2.1678 -11.9636 -13.0886
upperneck 2.92636 -16.4757 10.1037
head 2.4369 -8.29252 4.56661
rclavicle -1.59525e-014 1.05356e-014
rhumerus 7.60622 11.3537 -59.9475
rradius 29.54
rwrist 19.3468
rhand -14.3887 -14.0431
rfingers 7.12502
rthumb 11.7543 -43.6933
lclavicle -1.59525e-014 1.05356e-014
lhumerus -72.705 -18.1418 103.646
lradius 104.114
lwrist 48.2897
lhand -0.795122 40.6533
lfingers 7.12502
lthumb 24.8286 69.0613
rfemur -59.0701 -25.9987 4.86367
rtibia 70.816
rfoot -9.49115 12.6313
rtoes 3.0095
lfemur 15.0342 2.15315 -8.96493
ltibia 23.783
lfoot -12.9945 28.8543
ltoes -28.0372
1539
root -1.98595 14.3988 -21.0228 8.34477 32.267 11.0971
lowerback 12.7722 2.70185 -13.8533
upperback -0.912187 1.36663 -1.24676
thorax -8.54882 1.26626 6.17473
lowerneck 2.17919 -11.9674 -13.1005
upperneck 2.88654 -16.4811 10.1243
head 2.42655 -8.29537 4.57587
rclavicle 1.20588e-013 -3.37934e-014
rhumerus 7.65146 11.4035 -59.9657
rradius 29.507
rwrist 19.3397
rhand -14.3298 -14.0646
rfingers 7.12502
rthumb 11.8111 -43.7115
lclavicle 1.20588e-013 -3.37934e-014
lhumerus -72.6766 -18.143 103.649
lradius 104.105
lwrist 48.1777
lhand -0.729258 40.5895
lfingers 7.12502
lthumb 24.8917 68.9887
rfemur -59.0981 -26.0147 4.94019
rtibia 70.8327
rfoot -9.50224 12.6734
rtoes 3.09777
lfemur 15.0413 2.17735 -8.91251
ltibia 23.793
lfoot -13.0139 28.8655
ltoes -28.0434
1540
root -1.98406 14.3976 -21.0198 8.32942 32.239 11.039
lowerback 12.7694 2.69743 -13.8033
upperback -0.905132 1.37029 -1.23703
thorax -8.53853 1.265 6.15706
lowerneck 2.19421 -11.9703 -13.1054
upperneck 2.83258 -16.4844 10.1357
head 2.40981 -8.29728 4.58237
rclavicle 3.45388e-015 5.96354e-015
rhumerus 7.69763 11.4585 -59.9734
rradius 29.4785
rwrist 19.3541
rhand -14.2703 -14.0908
rfingers 7.12502
rthumb 11.8685 -43.7344
lclavicle 3.45388e-015 5.96354e-015
lhumerus -72.6461 -18.1333 103.656
lradius 104.096
lwrist 48.0672
lhand -0.668332 40.5181
lfingers 7.12502
lthumb 24.9501 68.9093
rfemur -59.1349 -26.032 5.01995
rtibia 70.85
rfoot -9.50707 12.7216
rtoes 3.1924
lfemur 15.0527 2.19801 -8.86637
ltibia 23.7932
lfoot -13.0268 28.8837
ltoes -28.0482
1541
root -1.98207 14.3961 -21.0167 8.3189 32.2049 10.9877
lowerback 12.7611 2.69531 -13.7645
upperback -0.896338 1.37658 -1.22457
thorax -8.52413 1.26527 6.14822
lowerneck 2.21302 -11.9704 -13.1086
upperneck 2.76742 -16.4835 10.1429
head 2.38811 -8.29712 4.58837
rclavicle -5.00192e-014 3.35946e-014
rhumerus 7.74519 11.5097 -59.9733
rradius 29.4514
rwrist 19.384
rhand -14.2223 -14.1171
rfingers 7.12502
rthumb 11.9148 -43.7581
lclavicle -5.00192e-014 3.35946e-014
lhumerus -72.6146 -18.1129 103.667
lradius 104.087
lwrist 47.9755
lhand -0.61592 40.4444
lfingers 7.12502
lthumb 25.0003 68.8286
rfemur -59.1794 -26.052 5.09692
rtibia 70.8708
rfoot -9.5098 12.7764
rtoes 3.28618
lfemur 15.0707 2.21662 -8.83046
ltibia 23.7837
lfoot -13.032 28.9054
ltoes -28.0626
1542
root -1.98008 14.3943 -21.0136 8.3149 32.1631 10.9474
lowerback 12.7488 2.69525 -13.7412
upperback -0.886555 1.38405 -1.21024
thorax -8.50727 1.26667 6.1499
lowerneck 2.23575 -11.9659 -13.1146
upperneck 2.69469 -16.4765 10.1499
head 2.36307 -8.29407 4.59571
rclavicle 6.44311e-014 2.06736e-014
rhumerus 7.79375 11.5511 -59.9706
rradius 29.4244
rwrist 19.4176
rhand -14.2021 -14.1409
rfingers 7.12502
rthumb 11.9342 -43.7807
lclavicle 6.44311e-014 2.06736e-014
lhumerus -72.5859 -18.081 103.681
lradius 104.079
lwrist 47.9189
lhand -0.571932 40.3758
lfingers 7.12502
lthumb 25.0424 68.7541
rfemur -59.2341 -26.0734 5.16796
rtibia 70.897
rfoot -9.50824 12.8368
rtoes 3.37486
lfemur 15.0945 2.23697 -8.80708
ltibia 23.7661
lfoot -13.0266 28.9313
ltoes -28.0839
1543
root -1.97817 14.3921 -21.0105 8.318 32.1131 10.9222
lowerback 12.7386 2.69821 -13.7336
upperback -0.878229 1.39249 -1.19779
thorax -8.49396 1.26949 6.15799
lowerneck 2.25903 -11.9587 -13.1223
upperneck 2.62776 -16.4662 10.1563
head 2.33937 -8.28941 4.6032
rclavicle 1.49585e-014 4.37326e-015
rhumerus 7.83633 11.581 -59.9703
rradius 29.3972
rwrist 19.4409
rhand -14.2085 -14.167
rfingers 7.12502
rthumb 11.928 -43.8072
lclavicle 1.49585e-014 4.37326e-015
lhumerus -72.564 -18.0435 103.695
lradius 104.069
lwrist 47.9025
lhand -0.532475 40.3219
lfingers 7.12502
lthumb 25.0803 68.6949
rfemur -59.2981 -26.0951 5.22822
rtibia 70.9293
rfoot -9.50611 12.9018
rtoes 3.45844
lfemur 15.1235 2.26002 -8.79929
ltibia 23.7439
lfoot -13.0218 28.9552
ltoes -28.1108
1544
root -1.97648 14.3895 -21.0073 8.32719 32.0562 10.909
lowerback 12.7283 2.70326 -13.7409
upperback -0.870749 1.40123 -1.18695
thorax -8.48212 1.27321 6.17247
lowerneck 2.28461 -11.9487 -13.1339
upperneck 2.56326 -16.4528 10.1679
head 2.31644 -8.28332 4.61301
rclavicle -4.97707e-014 -1.03368e-014
rhumerus 7.87692 11.5952 -59.9768
rradius 29.3672
rwrist 19.4534
rhand -14.2393 -14.1897
rfingers 7.12502
rthumb 11.8984 -43.8316
lclavicle -4.97707e-014 -1.03368e-014
lhumerus -72.5461 -18.0031 103.706
lradius 104.056
lwrist 47.9266
lhand -0.498249 40.2767
lfingers 7.12502
lthumb 25.1131 68.6452
rfemur -59.3711 -26.1141 5.28092
rtibia 70.9674
rfoot -9.50611 12.9653
rtoes 3.51507
lfemur 15.1547 2.28831 -8.8021
ltibia 23.72
lfoot -13.0164 28.9764
ltoes -28.1404
1545
root -1.9751 14.3867 -21.0039 8.33811 31.9974 10.8998
lowerback 12.719 2.70974 -13.7544
upperback -0.864742 1.41048 -1.17766
thorax -8.47283 1.27764 6.18858
lowerneck 2.30913 -11.9398 -13.1446
upperneck 2.50761 -16.4414 10.1814
head 2.29664 -8.27815 4.62276
rclavicle -7.9663e-014 -2.34566e-014
rhumerus 7.91096 11.5904 -59.9937
rradius 29.3361
rwrist 19.4566
rhand -14.2739 -14.2073
rfingers 7.12502
rthumb 11.865 -43.8511
lclavicle -7.9663e-014 -2.34566e-014
lhumerus -72.534 -17.967 103.714
lradius 104.04
lwrist 47.983
lhand -0.464651 40.242
lfingers 7.12502
lthumb 25.1452 68.6059
rfemur -59.4484 -26.1298 5.33205
rtibia 71.0098
rfoot -9.50522 13.0258
rtoes 3.55795
lfemur 15.1847 2.32093 -8.80592
ltibia 23.698
lfoot -13.0077 28.9959
ltoes -28.1759
1546
root -1.97394 14.3838 -21.0002 8.35703 31.9399 10.9009
lowerback 12.7095 2.71728 -13.7743
upperback -0.861386 1.41952 -1.17441
thorax -8.46639 1.28241 6.2016
lowerneck 2.32956 -11.9338 -13.15
upperneck 2.46413 -16.4341 10.1969
head 2.28134 -8.27489 4.63136
rclavicle -5.01683e-014 2.68359e-014
rhumerus 7.93584 11.5744 -60.0203
rradius 29.3067
rwrist 19.4494
rhand -14.2957 -14.2183
rfingers 7.12502
rthumb 11.844 -43.8634
lclavicle -5.01683e-014 2.68359e-014
lhumerus -72.5275 -17.9442 103.718
lradius 104.019
lwrist 48.0522
lhand -0.424512 40.2157
lfingers 7.12502
lthumb 25.1837 68.5742
rfemur -59.5312 -26.1472 5.37567
rtibia 71.0561
rfoot -9.50376 13.0852
rtoes 3.59217
lfemur 15.2085 2.35336 -8.81747
ltibia 23.6811
lfoot -13.0005 29.0146
ltoes -28.2174
1547
root -1.97298 14.3811 -20.9961 8.37199 31.8892 10.8942
lowerback 12.7019 2.72376 -13.7856
upperback -0.859181 1.42797 -1.17221
thorax -8.46188 1.28664 6.20873
lowerneck 2.34544 -11.9299 -13.1487
upperneck 2.42834 -16.4294 10.2138
head 2.26896 -8.27278 4.63872
rclavicle -2.99668e-014 -2.66371e-014
rhumerus 7.95263 11.5556 -60.0538
rradius 29.2847
rwrist 19.4356
rhand -14.2925 -14.2237
rfingers 7.12502
rthumb 11.8471 -43.8685
lclavicle -2.99668e-014 -2.66371e-014
lhumerus -72.5241 -17.935 103.719
lradius 103.994
lwrist 48.1193
lhand -0.386084 40.1961
lfingers 7.12502
lthumb 25.2205 68.5495
rfemur -59.6101 -26.164 5.42588
rtibia 71.1028
rfoot -9.50223 13.1388
rtoes 3.62244
lfemur 15.2271 2.38544 -8.81754
ltibia 23.6712
lfoot -12.9989 29.0295
ltoes -28.2637
1548
root -1.97219 14.3786 -20.9916 8.37999 31.8467 10.8749
lowerback 12.6969 2.7292 -13.7843
upperback -0.857932 1.43652 -1.16932
thorax -8.45948 1.29054 6.2095
lowerneck 2.35717 -11.9286 -13.1386
upperneck 2.39716 -16.428 10.2302
head 2.25822 -8.27211 4.64405
rclavicle -9.30561e-014 7.15625e-015
rhumerus 7.96098 11.542 -60.0908
rradius 29.2722
rwrist 19.421
rhand -14.2637 -14.2231
rfingers 7.12502
rthumb 11.8749 -43.8663
lclavicle -9.30561e-014 7.15625e-015
lhumerus -72.5246 -17.9409 103.718
lradius 103.969
lwrist 48.1718
lhand -0.345321 40.1851
lfingers 7.12502
lthumb 25.2596 68.533
rfemur -59.6819 -26.18 5.48615
rtibia 71.1485
rfoot -9.49888 13.1872
rtoes 3.66504
lfemur 15.2401 2.4136 -8.80264
ltibia 23.6691
lfoot -12.9989 29.0445
ltoes -28.3037
